<svg height="512pt" viewBox="0 0 512 512" width="512pt" xmlns="http://www.w3.org/2000/svg"><path d="m456.832031 0h-401.664062c-30.421875 0-55.167969 24.746094-55.167969 55.164062v401.667969c0 30.421875 24.746094 55.167969 55.167969 55.167969h401.664062c30.421875 0 55.167969-24.746094 55.167969-55.167969v-401.667969c0-30.417968-24.746094-55.164062-55.167969-55.164062zm-401.664062 30h401.664062c13.878907 0 25.167969 11.289062 25.167969 25.164062v73.367188h-452v-73.367188c0-13.875 11.289062-25.164062 25.167969-25.164062zm401.664062 452h-401.664062c-13.878907 0-25.167969-11.289062-25.167969-25.167969v-298.300781h452v298.300781c0 13.878907-11.289062 25.167969-25.167969 25.167969zm0 0"/><path d="m111.398438 94.269531c3.953124 0 7.8125-1.597656 10.613281-4.398437 2.789062-2.792969 4.386719-6.660156 4.386719-10.601563 0-3.949219-1.597657-7.820312-4.386719-10.609375-2.800781-2.789062-6.660157-4.390625-10.613281-4.390625-3.949219 0-7.820313 1.601563-10.609376 4.390625-2.789062 2.789063-4.390624 6.660156-4.390624 10.609375s1.601562 7.808594 4.390624 10.601563c2.800782 2.800781 6.660157 4.398437 10.609376 4.398437zm0 0"/><path d="m207.800781 94.269531c3.949219 0 7.808594-1.597656 10.609375-4.398437 2.789063-2.792969 4.390625-6.660156 4.390625-10.601563 0-3.949219-1.601562-7.820312-4.390625-10.609375-2.800781-2.789062-6.660156-4.390625-10.609375-4.390625s-7.820312 1.601563-10.609375 4.390625c-2.792968 2.789063-4.390625 6.660156-4.390625 10.609375s1.597657 7.808594 4.390625 10.601563c2.796875 2.800781 6.660156 4.398437 10.609375 4.398437zm0 0"/><path d="m304.199219 94.269531c3.949219 0 7.8125-1.597656 10.609375-4.398437 2.789062-2.792969 4.390625-6.660156 4.390625-10.601563 0-3.949219-1.601563-7.820312-4.390625-10.609375-2.789063-2.789062-6.660156-4.390625-10.609375-4.390625s-7.820313 1.601563-10.609375 4.390625c-2.789063 2.789063-4.390625 6.660156-4.390625 10.609375s1.601562 7.808594 4.390625 10.601563c2.800781 2.800781 6.660156 4.398437 10.609375 4.398437zm0 0"/><path d="m400.601562 94.269531c3.949219 0 7.808594-1.609375 10.609376-4.398437 2.789062-2.792969 4.390624-6.660156 4.390624-10.601563 0-3.949219-1.601562-7.820312-4.390624-10.609375-2.800782-2.789062-6.660157-4.390625-10.609376-4.390625-3.953124 0-7.820312 1.601563-10.609374 4.390625-2.792969 2.789063-4.390626 6.660156-4.390626 10.609375s1.597657 7.808594 4.390626 10.601563c2.796874 2.789062 6.65625 4.398437 10.609374 4.398437zm0 0"/><path d="m432.734375 192.800781h-353.46875c-8.28125 0-15 6.714844-15 15v224.933594c0 8.28125 6.71875 15 15 15h353.46875c8.285156 0 15-6.71875 15-15v-224.933594c0-8.285156-6.714844-15-15-15zm-15 224.929688h-323.46875v-194.929688h323.46875zm0 0"/><path d="m143.53125 287.066406h224.9375c8.28125 0 15-6.714844 15-15s-6.71875-15-15-15h-224.9375c-8.28125 0-15 6.714844-15 15s6.71875 15 15 15zm0 0"/></svg>