<?xml version="1.0" encoding="iso-8859-1"?>
<!-- Generator: Adobe Illustrator 16.0.0, SVG Export Plug-In . SVG Version: 6.00 Build 0)  -->
<!DOCTYPE svg PUBLIC "-//W3C//DTD SVG 1.1//EN" "http://www.w3.org/Graphics/SVG/1.1/DTD/svg11.dtd">
<svg version="1.1" id="Capa_1" xmlns="http://www.w3.org/2000/svg" xmlns:xlink="http://www.w3.org/1999/xlink" x="0px" y="0px"
	 width="190.341px" height="190.34px" viewBox="0 0 190.341 190.34" style="enable-background:new 0 0 190.341 190.34;"
	 xml:space="preserve">
<g>
	<path d="M167.993,90.907c0.098-2.632,0.066-5.356-0.11-8.181c0.381-0.047,0.768-0.132,1.163-0.307
		c8.954-3.964,13.689-6.51,10.968-16.867c-0.479-1.818-2.063-2.76-3.829-2.915c-53.593-4.717-112.33-10.058-164.961,3.951
		c-2.213,0.589-3.641,3.512-2.246,5.52c4.758,6.85,8.491,6.837,16.346,5.603c-0.135,0.146-0.266,0.304-0.366,0.528
		c-0.322,0.717-0.588,1.421-0.875,2.13c-0.117-0.041-0.202-0.114-0.333-0.14c-11.348-2.21-24.428,3.343-23.722,16.64
		C0.576,107.214,13,114.014,22.323,110.555c14.575,43.43,105.225,56.385,135.727,12.201c0.212,1.721,1.445,3.376,3.723,3.652
		c12.824,1.554,27.346-7.52,28.497-21.062C191.405,91.959,178.84,87.598,167.993,90.907z M20.727,103.817
		c-2.967,0.302-5.885,0.816-8.841-0.584c-2.494-1.181-4.214-3.622-4.539-6.364c-1.009-8.511,8.039-11.386,14.9-11.359
		C20.32,92.019,19.915,98.132,20.727,103.817z M137.333,130.145c-13.817,10.161-31.726,13.101-48.482,12.321
		c-35.401-1.646-66.137-25.009-60.337-62.729c0.205-1.333-1.02-2.503-2.147-2.492c1.242-1.081,0.373-3.651-1.531-3.787
		c-2.373,0.373-4.376-0.012-6.034-1.1c25.881-6.398,52.919-6.601,79.458-6.177c15.347,0.246,30.679,1.143,45.993,2.145
		c6.909,0.452,13.817,0.911,20.723,1.418c9.522,0.699,8.151,2.582,0.518,6.187c-2.374-1.344-5.868-0.354-5.971,3.288
		C158.951,99.473,154.413,117.583,137.333,130.145z M183.261,105.192c-1.86,10.424-12.562,12.942-21.489,13.326
		c-0.487,0.021-0.879,0.154-1.271,0.284c3.699-6.519,6.188-14.13,7.121-22.901c0.062-0.009,0.113,0.008,0.179-0.006
		C175.094,94.34,185.028,95.286,183.261,105.192z"/>
	<path d="M155.273,146.979c-1.86-2.21-5.112-0.72-5.936,1.567c-3.062,8.503-6.867,15.064-14.237,19.449
		c-1.219-3.523-2.915-6.818-4.358-10.38c-0.978-2.415-4.628-3.638-6.074-0.795c-3.243,6.375-8.634,10.103-13.313,14.984
		c-3.91-4.306-7.831-7.79-9.955-14.048c-0.623-1.835-3.208-2.93-4.664-1.231c-4.786,5.582-11.276,8.654-16.087,14.018
		c-3.265-3.723-7.101-6.845-10.779-10.231c-1.499-1.38-3.538-0.663-4.234,1.118c-2.488,6.374-6.395,12.17-12.209,7.661
		c-6.137-4.76-11.04-11.025-15.231-17.487c-1.11-1.711-4.095-2.121-5.101,0c-5.159,10.88-3.887,19.596,4.816,28.055
		c1.502,1.46,4.213-0.47,2.972-2.293c-4.312-5.033-5.673-10.972-4.187-17.784c5.859,7.624,12.748,13.996,20.974,19.33
		c1.205,0.781,3.14,0.313,3.791-0.994c2.079-4.177,5.476-7.488,7.601-11.507c3.356,2.983,6.78,5.946,9.352,9.637
		c1.169,1.677,3.389,1.705,4.553,0c3.812-5.587,9.737-8.512,14.687-12.695c2.818,5.848,7.177,9.898,11.462,15.371
		c0.989,1.262,3.407,1.191,4.41,0c4.205-4.993,9.295-8.534,13.333-13.344c1.165,2.744,2.243,5.515,2.803,8.439
		c0.318,1.664,2.563,3.049,4.186,2.376c9.776-4.047,15.459-10.616,19.629-19.362c3.041,5.805,3.03,11.713,0.94,18.651
		c-1.453,4.823,6.014,6.84,7.504,2.069C165.511,166.051,162.916,156.055,155.273,146.979z"/>
	<path d="M50.651,45.389c-3.346-5.868-9.081-9.917-14.027-14.343c-2.228-1.993-4.596-4.163-5.655-7.03
		c-1.478-4.004,2.28-7.46,1.749-11.462c-0.208-1.563-1.427-2.862-3.137-2.39c-8.145,2.248-8.955,14.239-5.086,20.397
		c4.956,7.89,15.307,11.677,21.803,18.187C48.542,50.995,52.212,48.125,50.651,45.389z"/>
	<path d="M81.2,43.136c-7.573-1.576-8.16-6.094-7.424-12.733c0.498-4.499,2.172-12.114-2.43-14.952
		c-1.267-0.781-3.299-0.361-3.974,1.042c-1.402,2.913-0.292,6.533-0.45,9.733c-0.165,3.338-0.802,6.661-0.5,10.008
		c0.76,8.392,6.888,10.32,14.268,10.671C82.843,47.008,83.324,43.578,81.2,43.136z"/>
	<path d="M121.75,14.275c-1.941-3.626-6.521-1.463-6.953,1.883c-0.501,3.871-0.056,6.598-2.335,10.037
		c-1.661,2.507-4.112,4.508-6.042,6.805c-4.173,4.967-4.295,10.374-0.324,15.409c1.467,1.859,4.443-0.155,3.831-2.23
		c-1.886-6.39,3.587-9.421,7.497-13.527C121.959,27.891,125.092,20.519,121.75,14.275z"/>
	<path d="M159.97,10.918c-2.591-0.23-4.297,3.095-2.969,5.173c1.182,1.849,4.468,3.672,4.604,5.822
		c0.166,2.611-3.272,5.694-4.8,7.441c-4.062,4.645-8.959,8.692-11.819,14.247c-1.387,2.694,2.086,5.674,4.312,3.326
		c6.092-6.427,14.104-11.373,18.916-18.905C172.675,21.039,168.192,11.649,159.97,10.918z"/>
</g>
<g>
</g>
<g>
</g>
<g>
</g>
<g>
</g>
<g>
</g>
<g>
</g>
<g>
</g>
<g>
</g>
<g>
</g>
<g>
</g>
<g>
</g>
<g>
</g>
<g>
</g>
<g>
</g>
<g>
</g>
</svg>
